<?xml version="1.0" encoding="UTF-8"?>
<svg id="Camada_1" data-name="Camada 1" xmlns="http://www.w3.org/2000/svg" viewBox="0 0 256 256">
  <defs>
    <style>
      .cls-1 {
        fill: #f1027e;
      }

      .cls-1, .cls-2 {
        fill-rule: evenodd;
      }

      .cls-1, .cls-2, .cls-3, .cls-4 {
        stroke-width: 0px;
      }

      .cls-2 {
        fill: #6d6d6d;
      }

      .cls-3 {
        fill: #6538e5;
      }

      .cls-4 {
        fill: #f4f2ed;
      }
    </style>
  </defs>
  <rect class="cls-4" width="256" height="256" rx="60" ry="60"/>
  <path class="cls-1" d="M137.15,52l86.84,63.28v25.24l-86.84,63.65v-25.24l69.53-50.85-69.53-50.47v-25.61Z"/>
  <path class="cls-1" d="M137.15,102.85l34.62,25.24-34.62,25.24v-50.47Z"/>
  <path class="cls-2" d="M119.84,52l-86.84,63.28v25.24l69.53-50.47v101.32l17.31,12.81V52ZM85.22,128.09l-34.92,25.24,34.62,25.24v-50.47h.3Z"/>
  <path class="cls-4" d="M191.79,40.25c-9.7-4.25-20.2-6.34-30.63-8.21-23.66-4.25-48.33-7.52-71.48-1.06-15.47,4.31-29.43,12.76-42.81,21.63-11.81,7.83-23.8,16.58-30.13,29.26-3.66,7.33-5.17,15.52-6.53,23.6-2.08,12.31-3.91,24.96-1.5,37.21,2.15,10.9,7.54,20.85,12.86,30.61,5.93,10.88,12.01,21.97,21.05,30.46,7.37,6.93,16.4,11.83,25.56,16.12,31.39,14.69,66.85,23.12,100.91,16.71,34.06-6.41,66.11-29.72,76.53-62.77,7.61-24.13,3.35-50.14,3.3-75.44-.01-7.29.32-14.7-1.6-21.73-4.44-16.34-19.8-27.09-34.76-35.02-11.79-6.25-25.79-11.73-38.13-6.65"/>
  <path class="cls-3" d="M71.72,96.07c36.71-.09,27.1-5.1,28.49,32.98,1.39,38.13-.37,76.35-.43,114.54,6.63-5.57,13.24-11.15,19.87-16.72.74-69.49,1.22-110.49,2.48-172.98-16.78,14.08-33.59,28.13-50.4,42.17Z"/>
  <path class="cls-3" d="M159.08,138.26c-1.4-38.54.41-77.18.45-115.78-6.63,5.57-13.24,11.15-19.87,16.72-.74,69.8-1.22,110.75-2.46,172.91,2.02-1.69,4.03-3.39,6.04-5.08,14.23-11.95,28.51-23.85,42.75-35.77-34.81.23-25.54,4.52-26.91-32.99Z"/>
</svg>