<?xml version="1.0" encoding="UTF-8"?>
<svg id="Camada_1" data-name="Camada 1" xmlns="http://www.w3.org/2000/svg" viewBox="0 0 256 256">
  <defs>
    <style>
      .cls-1 {
        fill: none;
      }

      .cls-1, .cls-2, .cls-3, .cls-4, .cls-5 {
        stroke-width: 0px;
      }

      .cls-2 {
        fill: #242938;
      }

      .cls-3 {
        fill: #f1027e;
      }

      .cls-3, .cls-4 {
        fill-rule: evenodd;
      }

      .cls-4 {
        fill: #6d6d6d;
      }

      .cls-5 {
        fill: #6538e5;
      }
    </style>
  </defs>
  <rect class="cls-2" width="256" height="256" rx="60" ry="60"/>
  <path class="cls-3" d="M137.15,52l86.84,63.28v25.24l-86.84,63.65v-25.24l69.53-50.85-69.53-50.47v-25.61Z"/>
  <path class="cls-3" d="M137.15,102.85l34.62,25.24-34.62,25.24v-50.47Z"/>
  <path class="cls-4" d="M119.84,52l-86.84,63.28v25.24l69.53-50.47v101.32l17.31,12.81V52ZM85.22,128.09l-34.92,25.24,34.62,25.24v-50.47h.3Z"/>
  <path class="cls-1" d="M81.23,90.07c-2.55,2.08-4.85,4.45-7.13,6.82-2.66,2.75-5.31,5.5-7.97,8.25-1.82,1.88-3.71,3.9-4.25,6.46,1.87.67,3.85-.48,5.48-1.6,7.66-5.24,15.37-11.36,18.71-20.02.22-.58.43-1.23.21-1.81-.36-.94-1.56-1.17-2.56-1.26-3.61-.31-7.27-.63-10.84-.02s-7.11,2.24-9.28,5.14c-.34.46-.64,1.12-.28,1.57.2.24.53.32.84.37,1.89.34,3.82.46,5.73.35"/>
  <path class="cls-1" d="M96.92,78.42c-4.97-1.92-10.57.16-15.18,2.82-7.55,4.35-14.76,11.71-14,20.39.5,5.67,4.42,10.59,9.19,13.7s10.33,4.72,15.81,6.28c2.31.66,4.7,1.32,7.07.99,3.17-.45,5.84-2.63,7.88-5.1,4.57-5.54,6.68-12.67,8.25-19.68,1.79-7.96,3.01-16.4.58-24.19-2.77-8.87-10.01-15.78-18.15-20.26-6.12-3.37-14.5-5.29-19.55-.45-2.49,2.39-3.54,5.98-3.56,9.43-.05,6.9,3.85,13.69,9.84,17.12"/>
  <path class="cls-1" d="M57.48,75.66c.37,5.53-1.99,10.82-3.81,16.06-2.94,8.47-4.58,17.39-4.83,26.35,2.35-4.35,4.7-8.71,7.05-13.06-1.97,7.45-4.32,14.79-7.05,22,4.97-12.83,7.54-26.44,10.08-39.96-3.79,12.93-7.57,25.86-11.36,38.79,4.25-10.79,8.26-21.71,11.06-32.96-8.99,14.66-17.14,29.83-24.38,45.43,7.04-13.82,12.71-28.31,17.93-42.92-4.56,11.29-9.11,22.58-13.67,33.87,5.19-8.9,9.1-18.48,12.99-28.03-4.23,7.94-8.08,16.08-11.51,24.4,2.47-6.06,4.94-12.12,7.41-18.18-2.12,5.55-3.69,11.3-4.68,17.16,2.46-1.7,4.49-4.03,5.82-6.71"/>
  <path class="cls-1" d="M103.22,81.89c-3.38-.49-6.72.94-9.78,2.45-5.12,2.52-10.08,5.35-15.03,8.18-4.89,2.79-9.78,5.59-14.67,8.38,1.03-.37,2.06-.74,3.09-1.11"/>
  <path class="cls-2" d="M117.36,53.93c-29.78,17.97-59.55,35.95-89.33,53.92-5.79,3.49-11.94,7.4-14.49,13.65-3.72,9.12,1.55,19.21,6.66,27.63,5.82,9.6,11.66,19.22,18.39,28.21,4.6,6.15,9.67,12.05,15.95,16.48,6.36,4.48,13.73,7.29,21.18,9.55,11.2,3.39,22.75,5.63,34.41,6.65,1.63.14,3.32.25,4.84-.33,1.66-.64,2.9-2.02,3.95-3.45,4.74-6.49,6.51-14.73,6.69-22.76s-1.12-16.01-1.96-24c-3.53-33.81,1.23-67.95-.33-101.91-.16-3.43-1.27-7.83-4.69-8.14-1.43-.13-2.79.59-3.94,1.44-2.81,2.07-4.9,5.09-5.87,8.44"/>
  <path class="cls-2" d="M129.84,200.47c.42,2.76.99,5.71,3,7.64,2.82,2.71,7.31,2.39,11.14,1.58,16.64-3.51,31.61-12.81,44.22-24.22,12.61-11.41,23.1-24.92,33.53-38.35,2.33-3,4.69-6.06,6.04-9.61,4.07-10.67-1.85-22.39-8.18-31.89-3.79-5.68-7.8-11.22-11.89-16.69-9.3-12.46-19.17-24.75-31.67-34-9.85-7.29-21.61-12.66-33.92-13.68-14.36-1.19-9.7,14.87-9.98,25.01-.78,28.75-4.25,57.36-4.88,86.11-.35,16.07.19,32.19,2.59,48.1Z"/>
  <path class="cls-5" d="M70.87,91.03c36.71-.09,27.1-5.1,28.49,32.98,1.39,38.13-.37,76.35-.43,114.54,6.63-5.57,13.24-11.15,19.87-16.72.74-69.49,1.22-110.49,2.48-172.98-16.78,14.08-33.59,28.13-50.4,42.17Z"/>
  <path class="cls-5" d="M158.23,133.22c-1.4-38.54.41-77.18.45-115.78-6.63,5.57-13.24,11.15-19.87,16.72-.74,69.8-1.22,110.75-2.46,172.91,2.02-1.69,4.03-3.39,6.04-5.08,14.23-11.95,28.51-23.85,42.75-35.77-34.81.23-25.54,4.52-26.91-32.99Z"/>
</svg>